<?xml version="1.0" standalone="no"?>
<!DOCTYPE svg PUBLIC "-//W3C//DTD SVG 20010904//EN"
 "http://www.w3.org/TR/2001/REC-SVG-20010904/DTD/svg10.dtd">
<svg version="1.0" xmlns="http://www.w3.org/2000/svg"
 width="200.000000pt" height="200.000000pt" viewBox="0 0 200.000000 200.000000"
 preserveAspectRatio="xMidYMid meet">
<metadata>
Created by potrace 1.16, written by Peter Selinger 2001-2019
</metadata>
<g transform="translate(0.000000,200.000000) scale(0.100000,-0.100000)"
fill="#000000" stroke="none">
<path d="M801 1732 c-40 -13 -82 -33 -92 -43 -10 -10 -31 -25 -47 -33 -31 -16
-77 -70 -101 -118 -8 -16 -17 -28 -21 -28 -4 0 -8 -48 -9 -107 -1 -80 3 -116
14 -137 22 -41 19 -46 -21 -46 -35 0 -36 -1 -30 -27 4 -16 11 -47 16 -71 5
-23 14 -52 21 -63 12 -23 67 -49 101 -48 13 0 2 6 -25 13 -26 7 -49 15 -50 17
-14 20 -27 67 -27 99 0 34 3 40 21 40 11 0 17 -4 14 -10 -3 -5 -2 -10 4 -10 5
0 13 9 16 20 3 11 13 20 22 20 14 0 14 -2 0 -18 -23 -25 -22 -28 14 -46 29
-15 33 -14 44 0 14 19 55 11 55 -11 0 -7 6 -15 14 -17 22 -5 -4 -70 -34 -85
-24 -12 -24 -13 -3 -13 20 0 39 20 69 75 6 11 20 21 31 23 16 2 23 -6 33 -42
13 -47 49 -96 71 -96 7 0 3 10 -9 23 -40 43 -24 93 26 80 25 -6 62 13 62 31 0
17 22 15 45 -4 15 -12 15 -14 1 -22 -24 -13 -19 -28 9 -28 14 0 25 5 25 10 0
6 9 10 21 10 17 0 19 -4 13 -22 -16 -55 -34 -76 -71 -86 -25 -6 -30 -10 -16
-11 41 -2 71 21 96 73 33 68 48 80 87 71 43 -9 47 -27 22 -99 -12 -33 -27 -84
-32 -112 -7 -32 -21 -61 -36 -75 -15 -14 -24 -18 -24 -9 0 8 -8 4 -19 -9 -11
-12 -23 -23 -28 -23 -10 -1 -62 -25 -83 -37 -8 -5 -23 -12 -33 -15 -11 -4 -21
-15 -24 -26 -3 -11 -9 -18 -13 -15 -12 7 -61 -16 -55 -26 3 -4 14 -5 25 -2 28
7 26 -21 -2 -41 -25 -17 -133 -22 -142 -7 -3 5 -14 7 -24 4 -20 -5 -72 47 -72
71 0 7 -18 59 -40 117 -22 57 -40 94 -40 82 0 -12 4 -32 9 -45 5 -13 19 -46
30 -75 25 -61 26 -77 6 -70 -8 4 -17 2 -20 -3 -4 -6 -15 -10 -26 -10 -10 0
-64 -20 -120 -45 -142 -64 -199 -85 -235 -85 -16 0 -45 -11 -64 -25 -19 -14
-39 -25 -45 -25 -6 0 -33 -14 -58 -31 l-47 -31 0 -214 0 -214 1000 0 1000 0 0
45 c0 41 -7 56 -45 99 -6 6 -31 40 -55 76 -47 68 -64 88 -144 179 -67 76 -90
91 -214 146 -59 26 -108 49 -110 50 -2 2 4 9 12 17 37 37 50 91 49 198 -1 109
-18 174 -74 285 -23 44 -27 101 -12 155 13 48 0 147 -28 218 -25 61 -73 139
-99 159 -28 23 -215 111 -245 117 -93 16 -161 13 -234 -12z m-93 -304 c6 -6
12 -8 12 -4 0 3 15 -3 33 -13 160 -93 190 -109 201 -107 6 2 8 1 4 -1 -18 -11
5 -29 32 -25 18 2 30 0 30 -7 0 -6 6 -8 13 -5 7 2 33 -13 57 -36 46 -41 48
-52 5 -24 -14 9 -30 12 -37 8 -7 -5 -51 -9 -96 -9 -79 0 -85 -2 -107 -27 -13
-16 -31 -28 -39 -28 -25 0 -46 12 -46 26 0 8 -19 27 -42 44 -33 24 -51 30 -93
30 l-52 0 -6 38 c-14 87 31 166 88 155 17 -3 36 -10 43 -15z m392 -787 c0 -10
7 -24 15 -31 20 -17 45 -104 45 -158 0 -56 -22 -103 -70 -146 -50 -45 -93 -53
-192 -33 -127 25 -198 81 -253 199 -28 59 -30 81 -14 127 l11 32 19 -31 c12
-19 38 -39 66 -51 48 -20 66 -36 57 -51 -3 -4 2 -8 11 -8 9 0 13 -5 10 -10 -3
-6 0 -16 7 -24 38 -38 110 -30 133 15 9 16 13 29 9 29 -4 0 12 18 35 40 22 22
45 40 51 40 13 0 41 44 43 68 1 25 17 18 17 -7z"/>
<path d="M815 893 c-33 -8 -65 -14 -72 -15 -6 -1 -9 -8 -6 -16 5 -11 1 -13
-14 -8 -12 4 -25 1 -33 -9 -9 -11 -17 -12 -30 -5 -21 11 -33 0 -25 -22 6 -15
78 -42 154 -59 25 -5 48 -14 52 -20 3 -6 15 -8 25 -5 11 3 34 2 52 -3 36 -11
50 3 38 36 -6 14 -9 15 -15 4 -8 -13 -14 -13 -156 5 -27 3 -54 10 -59 15 -6 5
-19 9 -30 9 -12 0 -29 6 -38 14 -14 11 -8 12 40 11 31 -1 65 -6 75 -10 28 -12
67 3 67 26 0 11 10 29 23 39 31 26 21 29 -48 13z"/>
</g>
</svg>
